<svg xmlns="http://www.w3.org/2000/svg" viewBox="0 0 1024 1024">
  <defs>
    <filter id="shadow" x="-10%" y="-10%" width="120%" height="120%">
      <feDropShadow dx="0" dy="6" stdDeviation="12" flood-color="#0a1f6e" flood-opacity="0.15"/>
    </filter>
  </defs>
  <rect x="32" y="32" width="960" height="960" rx="160" ry="160" fill="#ffffff" filter="url(#shadow)"/>
  <g fill="#0d1f6e">
    <path d="M250 170 L250 820 L380 820 L380 600 L520 600 L660 820 L820 820 L660 580
             C740 540 790 470 790 380
             C790 260 700 170 560 170 Z
             M380 290 L540 290
             C610 290 660 330 660 390
             C660 450 610 490 540 490 L380 490 Z"/>
  </g>
  <g fill="#ffffff">
    <path d="M512 290
             C470 340 450 400 450 470
             L450 580
             L430 580
             L430 640
             L470 640
             L470 690
             L554 690
             L554 640
             L594 640
             L594 580
             L574 580
             L574 470
             C574 400 554 340 512 290 Z"/>
    <circle cx="512" cy="430" r="20" fill="#0d1f6e"/>
    <path d="M450 600 L410 660 L450 645 Z"/>
    <path d="M574 600 L614 660 L574 645 Z"/>
    <path d="M488 690 L498 740 L488 740 Z" opacity="0.85"/>
    <path d="M536 690 L526 740 L536 740 Z" opacity="0.85"/>
  </g>
  <text x="512" y="940" text-anchor="middle"
        font-family="Helvetica, Arial, sans-serif"
        font-weight="900" font-size="140" fill="#0d1f6e"
        letter-spacing="6">RONDOBYTE</text>
</svg>
